<svg xmlns="http://www.w3.org/2000/svg" viewBox="0 0 93.42 91.4"><defs><style>.cls-1{fill:#333;stroke:#333;stroke-miterlimit:10;stroke-width:0.5px;}</style></defs><title>isogalisRecurso 4</title><g id="Capa_2" data-name="Capa 2"><g id="Capa_1-2" data-name="Capa 1"><path class="cls-1" d="M46.71.25c-.5,0-.68,2.43-1.8,8.45-.49,2.67-.95,4.86-1.26,6.31,0,0-.22,1.15-1.34,5.16a17.16,17.16,0,0,1-2.17,5,3.41,3.41,0,0,1-1.24,1.2,4.44,4.44,0,0,1-2.58.26,9.19,9.19,0,0,1-2.3-.53c-2.23-.86-3.38-2.31-3.56-2.14s.72,1,1.48,2.73a14.41,14.41,0,0,1,.71,2c.41,1.33,1,3.29,1.21,4.47.43,2.06,1.86,9-.82,10.54-2.38,1.37-7-2.24-7.4-2.57a6.2,6.2,0,0,1-2-2.06c-.25-.48-.38-.92-.55-.9s-.15,1.14-.63,2.41a4,4,0,0,1-1.74,2.32c-1.09.46-2.3-.37-4.41-1.64-1.54-.93-2.7-1.59-3.61-2.09l-1.89-1c-3.32-1.76-3.52-2-4.81-2.61C3.75,34.42.48,33,.26,33.43c-.09.15.66.58,2.34,2.4l.34.36C4,37.37,4.39,38.05,5.18,39.07c.58.74.52.57,1.33,1.56s1.34,1.77,2.88,3.92c1.3,1.82,1.08,1.48,1.66,2.3.17.25,1.85,2.65,4,6.33,1,1.71,1.23,2.26,1.17,3a5.89,5.89,0,0,1-1.55,3,7.14,7.14,0,0,1-2,2.14c-.32.19-.66.35-.64.53s.87.35,1.92.57c.07,0,1,.27,2.73.78a42.74,42.74,0,0,1,4.71,1.73,20.1,20.1,0,0,1,6.14,3.45c.9.79,1,1.09,1.07,1.35.32,1.88-3.35,3.9-5.29,5a29,29,0,0,1-5.31,2.13,11.45,11.45,0,0,1-2.92.64c-.37,0-.81,0-.86.1s0,.33,1.41,1a26.53,26.53,0,0,0,5.65,2.19A42.45,42.45,0,0,0,36,81.66,34.1,34.1,0,0,0,43.66,80c.46-.19.93-.34,1.37-.56.65-.33,1-.57,1.14-.45s.11.39.06,1,0,1-.09,1.53c-.2,1.71-.09,2.14-.39,4.74,0,0-.18,1.57-.5,3.41a7.33,7.33,0,0,1-.18.91c-.09.22-.17.35-.11.45s.38.13.75.11c1.07-.08,1.31.08,1.46-.11s.06-.27,0-.73,0-.84,0-1.25c0-.62,0-1.24,0-1.85,0-2.74.11-2.62.07-3.38a12.26,12.26,0,0,1,0-1.53c0-.13,0-.41,0-.81,0-.18,0-.39,0-.66,0-.47,0-.61-.07-1.11s0-.67,0-.73c.26-.24,1,.39,2.17.87a21.79,21.79,0,0,0,2.14.59c1.61.44,1.65.5,2.31.66a18.35,18.35,0,0,0,3.15.45c2.68.25,4,.36,5.19.39a34.35,34.35,0,0,0,10.2-1.12c3.3-.91,6.85-2.52,6.7-3.1-.06-.2-.55-.19-1.33-.28a17.88,17.88,0,0,1-5.19-1.56c-.81-.33-.4-.21-5.19-2.83a5.72,5.72,0,0,1-2.26-2,2.05,2.05,0,0,1-.43-1.11c0-1,1-1.69,2.46-2.55a40.64,40.64,0,0,1,5.42-2.71,37.3,37.3,0,0,1,5-1.82c2.17-.57,3.66-.22,3.81-.76s-1-.86-2.35-2.37c-.84-.93-2-2.24-2-3.8,0-.47.15-.76,1.29-2.75,1-1.75,1.49-2.63,1.81-3.14,1.68-2.65,2.88-4.55,4.78-7.12a53.51,53.51,0,0,1,4.45-5.56c2.28-2.39,3.84-3.44,3.64-3.76C92.82,33,88.56,35,86,36.26a54.18,54.18,0,0,0-7.23,4.15c-2.76,1.91-3.71,3-5.17,2.71a4.42,4.42,0,0,1-3-2.87c-.34-1.06-.1-2-.37-2.08S69.66,39.05,69,40a8.21,8.21,0,0,1-3,2.37c-1.92,1.08-4,2.23-5.39,1.53s-1.59-3.06-1.71-5.36a24,24,0,0,1,1.89-9.84c1-2.62,2.46-4.52,2.14-4.74s-.86.77-2.4,1.63A6.66,6.66,0,0,1,56,26.66a4.79,4.79,0,0,1-3.07-2c-.13-.24-.09-.25-.59-1.54-.38-1-.65-1.62-.78-1.92a25.05,25.05,0,0,1-1.16-4.08C49.29,12.07,49,10.68,49,10.68,47.78,3.72,47.14.24,46.71.25Z"/></g></g></svg>