<svg xmlns="http://www.w3.org/2000/svg" viewBox="0 0 31.68 33.03"><defs><style>.cls-1{fill:#1d1d1b;stroke:#1d1d1b;stroke-miterlimit:10;}</style></defs><title>whatsappRecurso 2</title><g id="Capa_2" data-name="Capa 2"><g id="Capa_1-2" data-name="Capa 1"><path class="cls-1" d="M7.53.5A5.17,5.17,0,0,1,9.82.93a10.07,10.07,0,0,1,1.64,1,.86.86,0,0,0,.43.22c.28,0,.46-.45.55-1.33h.5c0,.53,0,1.19-.07,2s0,1.79,0,3.05h-.5c-.1-.61-.23-1.2-.37-1.76a3.77,3.77,0,0,0-.72-1.46A4.22,4.22,0,0,0,9.6,1.34,5.21,5.21,0,0,0,7.48.89a3.72,3.72,0,0,0-2,.54A4.57,4.57,0,0,0,4,3,8.15,8.15,0,0,0,3,5.38a13.34,13.34,0,0,0-.34,3.17q0,3.93,1.27,5.75a4.44,4.44,0,0,0,3.93,1.83,3.76,3.76,0,0,0,1.36-.23,5.91,5.91,0,0,0,.91-.45,1.43,1.43,0,0,0,.52-.54,1.67,1.67,0,0,0,.11-.66v-2.1a3.71,3.71,0,0,0-.18-1.33,1,1,0,0,0-.64-.59,5,5,0,0,0-1.39-.17V9.62l.92,0,1.1,0h1.06l1.3,0,1-.05v.44c-.48,0-.78.14-.91.35a3.36,3.36,0,0,0-.2,1.53v4.32h-.44a3.22,3.22,0,0,0-.16-.81c-.1-.29-.24-.44-.43-.44a.54.54,0,0,0-.26.07,3.22,3.22,0,0,0-.46.3,6.27,6.27,0,0,1-1.52.87,5.18,5.18,0,0,1-1.88.31A6.8,6.8,0,0,1,2.39,14.5,8.13,8.13,0,0,1,.5,8.79a9.89,9.89,0,0,1,.92-4.41,7,7,0,0,1,2.5-2.87A6.56,6.56,0,0,1,7.53.5Z"/><path class="cls-1" d="M22,.7l5.33,13.72a2.25,2.25,0,0,0,.74,1.11,1.54,1.54,0,0,0,.76.29v.44c-.29,0-.65-.05-1.07-.06H24.94q-.74,0-1.2.06v-.44a2.17,2.17,0,0,0,1.42-.38c.2-.23.16-.71-.13-1.45L21,3.14l.35-.28-3.8,9.86a5,5,0,0,0-.43,1.85,1,1,0,0,0,.5.94,2.83,2.83,0,0,0,1.39.31v.44c-.4,0-.83-.05-1.27-.06H15.55c-.26,0-.49,0-.71.06v-.44a2.1,2.1,0,0,0,.89-.51,3.45,3.45,0,0,0,.83-1.39L21.69.7H22ZM24.7,10v.44H18.2l.22-.44Z"/><path class="cls-1" d="M6.07,16.77v.44a3.78,3.78,0,0,0-1.13.16.82.82,0,0,0-.51.52,3.9,3.9,0,0,0-.13,1.19V29.91a4,4,0,0,0,.13,1.18.77.77,0,0,0,.51.51,4,4,0,0,0,1.13.12H7.66a4.42,4.42,0,0,0,2.08-.39,2.25,2.25,0,0,0,1-1.29,10.68,10.68,0,0,0,.47-2.4h.5c0,.45-.07,1.05-.07,1.79,0,.27,0,.67,0,1.19s.06,1.05.12,1.6c-.75,0-1.58,0-2.51,0H2.79c-.81,0-1.58,0-2.29,0v-.44a4,4,0,0,0,1.12-.17.79.79,0,0,0,.52-.52,4.31,4.31,0,0,0,.13-1.18V19.08a4.24,4.24,0,0,0-.13-1.19.82.82,0,0,0-.52-.52A3.71,3.71,0,0,0,.5,17.21v-.44l1.2,0c.49,0,1,0,1.59,0s1,0,1.52,0Z"/><path class="cls-1" d="M19.22,16.77v.44a3.76,3.76,0,0,0-1.12.16.82.82,0,0,0-.51.52,3.9,3.9,0,0,0-.13,1.19V29.91a4,4,0,0,0,.13,1.18.8.8,0,0,0,.51.52,4.06,4.06,0,0,0,1.12.17v.44c-.33,0-.75,0-1.25,0H14.86c-.49,0-.89,0-1.2,0v-.44a4,4,0,0,0,1.12-.17.79.79,0,0,0,.52-.52,4.31,4.31,0,0,0,.13-1.18V19.08a4.24,4.24,0,0,0-.13-1.19.82.82,0,0,0-.52-.52,3.71,3.71,0,0,0-1.12-.16v-.44l1.2,0c.49,0,1,0,1.59,0s1,0,1.52,0Z"/><path class="cls-1" d="M26.06,16.53a4.17,4.17,0,0,1,1.65.25,5.66,5.66,0,0,1,1,.56c.17.1.31.18.42.23a.77.77,0,0,0,.32.07q.34,0,.48-1h.5c0,.25,0,.54-.05.89s0,.79-.05,1.35,0,1.3,0,2.21h-.5a6.26,6.26,0,0,0-.46-2,3.8,3.8,0,0,0-1.14-1.57,3,3,0,0,0-2-.62,2.72,2.72,0,0,0-1.91.7,2.4,2.4,0,0,0-.75,1.84,2.67,2.67,0,0,0,.5,1.64,4.91,4.91,0,0,0,1.34,1.2l1.83,1.15a22.47,22.47,0,0,1,2,1.39,5.66,5.66,0,0,1,1.4,1.51,3.78,3.78,0,0,1,.51,2,4,4,0,0,1-.63,2.31,3.92,3.92,0,0,1-1.68,1.38,5.81,5.81,0,0,1-2.31.46,5.14,5.14,0,0,1-1.84-.27,7.32,7.32,0,0,1-1.15-.54,1.65,1.65,0,0,0-.74-.31q-.36,0-.48,1h-.51q0-.45.06-1.08c0-.41,0-.95,0-1.62s0-1.52,0-2.53h.5a9.11,9.11,0,0,0,.49,2.44,4,4,0,0,0,1.25,1.82,3.4,3.4,0,0,0,2.23.69,3.11,3.11,0,0,0,2-.69,2.62,2.62,0,0,0,.88-2.21A2.89,2.89,0,0,0,28.3,27a14.55,14.55,0,0,0-2.46-1.79c-.69-.42-1.33-.85-1.92-1.28a5.4,5.4,0,0,1-1.43-1.52A3.86,3.86,0,0,1,22,20.31a3.72,3.72,0,0,1,.58-2.13,3.5,3.5,0,0,1,1.52-1.25A5,5,0,0,1,26.06,16.53Z"/></g></g></svg>