<svg xmlns="http://www.w3.org/2000/svg" viewBox="0 0 130.51 127.66"><defs><style>.cls-1{fill:none;stroke:#959338;stroke-linecap:round;stroke-linejoin:round;}.cls-2{fill:#d8764b;}</style></defs><title>galisRecurso 5</title><g id="Capa_2" data-name="Capa 2"><g id="Capa_1-2" data-name="Capa 1"><path class="cls-1" d="M29.53,127.16c8.56-25.15,19.31-54.49,43-69.32a53.94,53.94,0,0,1,21.43-7.75"/><path class="cls-1" d="M35.52,109.35s14.26-41-8.23-76.42"/><path class="cls-2" d="M48.28,91c-9.27,7-12.74,18-12.44,18.44s11.86.07,21.14-6.94,12.77-18,12.44-18.44S57.55,84,48.28,91Z"/><path class="cls-2" d="M103.3,39.2C89.24,42,79.47,52.43,79.59,53c.15.77,13.15,6.43,27.21,3.61s23.84-13.17,23.71-13.84S117.35,36.38,103.3,39.2Z"/><path class="cls-2" d="M26.55,16.6c8,11.9,7.63,26.16,7.12,26.51-.66.44-13.87-4.68-21.88-16.58S4.11.4,4.68,0,18.55,4.7,26.55,16.6Z"/><path class="cls-2" d="M25.75,57.76c11.08,9.1,14.82,22.87,14.43,23.35s-14.63-.5-25.72-9.6S-.4,48.69,0,48.16,14.66,48.66,25.75,57.76Z"/><path class="cls-2" d="M52.62,50.69C49.1,61.36,40.08,68,39.62,67.82S35.86,57,39.38,46.32,51.85,29,52.36,29.18,56.13,40,52.62,50.69Z"/></g></g></svg>