<?xml version="1.0" encoding="utf-8"?>
<!-- Generator: Adobe Illustrator 24.0.2, SVG Export Plug-In . SVG Version: 6.00 Build 0)  -->
<svg version="1.1" id="Capa_1" xmlns="http://www.w3.org/2000/svg" xmlns:xlink="http://www.w3.org/1999/xlink" x="0px" y="0px"
	 viewBox="0 0 87.1 30.4" style="enable-background:new 0 0 87.1 30.4;" xml:space="preserve">
<style type="text/css">
	.st0{enable-background:new    ;}
	.st1{fill:#DBAF4B;}
</style>
<title>isogalisRecurso 3</title>
<g id="Capa_2_1_">
	<g id="Capa_1-2">
		<g class="st0">
			<path class="st1" d="M12.7,10.6c0,0.7-0.3,1.1-0.6,1.2c-0.2,0.1-1,0.5-1.6,0.7v-5c0-0.7-0.5-1.2-1.2-1.2S8.1,6.9,8.1,7.6v15.9
				c0,0.7,0.5,1.2,1.2,1.2s1.2-0.5,1.2-1.2V17h-0.1c-0.5,0-0.8-0.7-0.8-0.7l-0.7-1.6h2.8c0.7,0,1.1,0.4,1.1,1.2v7.9
				c0,1.5-1.2,2.7-2.7,2.8H8.7c-1.5,0-2.8-1.2-2.8-2.8V7.2c0-1.5,1.2-2.8,2.8-2.8H10c1.5,0.1,2.7,1.3,2.7,2.8V10.6z"/>
			<path class="st1" d="M31.8,26.3h-2.4l-2-14.9l-2,14.9H23l3.3-21.7h1.2c0.9,0,1.1,0.6,1.2,1.2L31.8,26.3z"/>
			<path class="st1" d="M49.8,24.1c-0.2,0.6-0.6,1.4-0.7,1.6c-0.2,0.3-0.5,0.6-1.2,0.6h-5.3V4.6h1.5c0.4,0,0.7,0.3,0.7,0.7v18.8
				H49.8z"/>
			<path class="st1" d="M61,4.6c0.7,0,0.9,0.5,0.9,0.9v20.8h-1.6c-0.5,0-0.6-0.3-0.7-0.5V4.6H61z"/>
			<path class="st1" d="M79,10.1V7.6c0-0.7-0.5-1.2-1.2-1.2c-0.7,0-1.2,0.5-1.2,1.2v2.1c0,1.3,1,2.9,1,2.9l2.7,5c1.1,2,1,3.4,1,3.4
				v2.8c0,1.5-1.2,2.8-2.8,2.8h-1.4c-1.5-0.1-2.7-1.3-2.7-2.8v-2.2c0-0.7,0.3-1.1,0.6-1.2c0.2-0.1,1.1-0.5,1.6-0.7v3.8
				c0,0.7,0.5,1.2,1.2,1.2c0.7,0,1.2-0.5,1.2-1.2v-2.5c0-1.3-1-2.9-1-2.9l-2.7-5c-1.1-2-1-3.4-1-3.4V7.3c0-1.5,1.2-2.9,2.8-2.9h1.4
				c1.5,0,2.7,1.4,2.7,2.9v0.8c0,0.7-0.3,1.1-0.6,1.2C80.4,9.5,79.6,9.9,79,10.1z"/>
		</g>
	</g>
</g>
</svg>
