<svg xmlns="http://www.w3.org/2000/svg" viewBox="0 0 75.36 22.14"><defs><style>.cls-1{isolation:isolate;}.cls-2{fill:#dbaf4b;}</style></defs><title>logogalisRecurso 1</title><g id="Capa_2" data-name="Capa 2"><g id="Capa_1-2" data-name="Capa 1"><g id="Capa_2-2" data-name="Capa 2"><g id="Capa_1-2-2" data-name="Capa 1-2"><g class="cls-1"><path class="cls-2" d="M6.82,6.14A1.2,1.2,0,0,1,6.2,7.35c-.15.09-1,.49-1.61.74v-5a1.18,1.18,0,0,0-2.36,0V19a1.18,1.18,0,0,0,2.36,0V12.53H4.5c-.5,0-.81-.72-.81-.72L3,10.26H5.74c.68,0,1.08.37,1.08,1.21v7.91a2.79,2.79,0,0,1-2.7,2.76H2.76A2.77,2.77,0,0,1,0,19.38V2.76A2.77,2.77,0,0,1,2.76,0H4.12a2.79,2.79,0,0,1,2.7,2.76Z"/><path class="cls-2" d="M25.89,21.92H23.44L21.48,7,19.53,21.92H17.08L20.37.22h1.21c.93,0,1.08.59,1.17,1.18Z"/><path class="cls-2" d="M43.87,19.72c-.25.56-.62,1.43-.72,1.61a1.25,1.25,0,0,1-1.21.59H36.61V.22h1.55a.71.71,0,0,1,.68.68V19.72Z"/><path class="cls-2" d="M55.09.22a.85.85,0,0,1,.9.86V21.92H54.4c-.52,0-.62-.31-.65-.46V.22Z"/><path class="cls-2" d="M73.1,5.67V3.16a1.18,1.18,0,1,0-2.36,0V5.24a7.27,7.27,0,0,0,1,2.91l2.67,5a7,7,0,0,1,1,3.44v2.76a2.77,2.77,0,0,1-2.79,2.76H71.18a2.81,2.81,0,0,1-2.7-2.76V17.15a1.26,1.26,0,0,1,.62-1.21c.18-.06,1.08-.47,1.64-.72V19a1.18,1.18,0,1,0,2.36,0V16.5a7.49,7.49,0,0,0-1-2.95l-2.67-5a7,7,0,0,1-1-3.44V2.88A2.88,2.88,0,0,1,71.27,0h1.39a2.89,2.89,0,0,1,2.7,2.88v.84a1.28,1.28,0,0,1-.62,1.21C74.56,5,73.69,5.43,73.1,5.67Z"/></g></g></g></g></g></svg>