<svg xmlns="http://www.w3.org/2000/svg" viewBox="0 0 149.32 60.68"><defs><style>.cls-1{font-size:61.74px;}.cls-1,.cls-2,.cls-3,.cls-4,.cls-5,.cls-6{fill:#fff;}.cls-1,.cls-2,.cls-3,.cls-5,.cls-6{font-family:Ailerons-Regular, Ailerons;}.cls-2{font-size:61.69px;}.cls-3{font-size:61.8px;}.cls-4,.cls-5{stroke:#fff;stroke-miterlimit:10;}.cls-4{stroke-width:0.5px;}.cls-5{font-size:49.14px;}.cls-6{font-size:61.88px;}</style></defs><title>galis2Recurso 4</title><g id="Capa_2" data-name="Capa 2"><g id="Capa_1-2" data-name="Capa 1"><text class="cls-1" transform="translate(0 52.48) scale(1.08 1)">G</text><text class="cls-2" transform="translate(32.45 52.73) scale(1.05 1)">A</text><text class="cls-3" transform="translate(61.11 52.53) scale(1.02 1)">L</text><path class="cls-4" d="M106,3.94a5.44,5.44,0,0,0-.16,1.1c0,.35-.09.63-.12.82a6.12,6.12,0,0,1-.12.67,2.67,2.67,0,0,1-.19.65.42.42,0,0,1-.11.16.34.34,0,0,1-.24,0,.5.5,0,0,1-.21-.07c-.2-.11-.3-.3-.32-.28s.07.14.14.36c0,.06,0,.11.06.26s.09.43.11.58.17,1.18-.07,1.38-.64-.29-.67-.34a.71.71,0,0,1-.18-.27c0-.06,0-.12,0-.11s0,.15-.06.31-.06.25-.16.3-.2-.05-.39-.21L103,9l-.17-.13c-.3-.23-.32-.26-.44-.34s-.5-.33-.52-.28.06.07.21.31l0,0c.1.15.13.24.21.37a1.72,1.72,0,0,0,.12.21c.08.14.12.23.26.51l.15.3s.16.34.36.82a.92.92,0,0,1,.1.4.89.89,0,0,1-.14.38.89.89,0,0,1-.18.28s-.06,0-.06.07.08,0,.17.08l.25.1a4.32,4.32,0,0,1,.43.22,1.82,1.82,0,0,1,.55.45.55.55,0,0,1,.1.18c0,.24-.3.51-.48.65a2.35,2.35,0,0,1-.48.27.78.78,0,0,1-.26.09s-.08,0-.08,0,0,0,.13.14a1.87,1.87,0,0,0,.51.28,2.33,2.33,0,0,0,.72.14,2.47,2.47,0,0,0,.61,0,2.29,2.29,0,0,0,.7-.22l.12-.07c.06,0,.09-.07.1-.06s0,.05,0,.13,0,.14,0,.2c0,.23,0,.28,0,.62,0,0,0,.2,0,.44a.44.44,0,0,1,0,.12.35.35,0,0,1,0,.06s0,0,.07,0,.12,0,.13,0,0,0,0-.09a1,1,0,0,1,0-.17v-.24c0-.35,0-.34,0-.44a1.33,1.33,0,0,1,0-.2v-.19a.66.66,0,0,0,0-.14c0-.08,0-.09,0-.1s.09.05.19.11,0,0,.2.08l.21.09a1.2,1.2,0,0,0,.28.06l.47.05a2.32,2.32,0,0,0,.92-.15c.3-.12.62-.33.61-.4s0,0-.12,0a1.23,1.23,0,0,1-.47-.2c-.08,0,0,0-.47-.37a.68.68,0,0,1-.21-.26.37.37,0,0,1,0-.15c0-.12.09-.22.22-.33a3,3,0,0,1,.49-.35,2.23,2.23,0,0,1,.45-.24c.2-.07.33,0,.35-.1s-.09-.11-.22-.31a.9.9,0,0,1-.17-.49,1,1,0,0,1,.11-.36c.09-.23.14-.34.17-.41.15-.35.26-.59.43-.93a7.92,7.92,0,0,1,.4-.72c.21-.31.35-.45.33-.49s-.41.18-.64.35a4.21,4.21,0,0,0-.66.54c-.25.25-.33.39-.46.35a.49.49,0,0,1-.28-.37c0-.14,0-.27,0-.27s-.05.11-.11.23a.84.84,0,0,1-.27.31c-.18.14-.36.29-.49.2s-.14-.4-.15-.7a4.35,4.35,0,0,1,.17-1.28,5,5,0,0,0,.19-.62s-.08.1-.22.22a.45.45,0,0,1-.41.14.46.46,0,0,1-.28-.26,1.47,1.47,0,0,0,0-.2c0-.13-.06-.21-.07-.25s-.08-.37-.11-.53c-.1-.66-.12-.84-.12-.84A6.85,6.85,0,0,0,106,3.94Z"/><text class="cls-5" transform="translate(87.94 52.38) scale(1.5 1)">I</text><text class="cls-6" transform="translate(112.68 52.59) scale(0.99 1)">S</text></g></g></svg>