<svg xmlns="http://www.w3.org/2000/svg" viewBox="0 0 276.37 73.78"><defs><style>.cls-1{fill:#1d1d1b;}</style></defs><title>galis2Recurso 1</title><g id="Capa_2" data-name="Capa 2"><g id="Capa_1-2" data-name="Capa 1"><path class="cls-1" d="M32.28,0A24.18,24.18,0,0,1,42.8,2a47.55,47.55,0,0,1,7.52,4.57,4,4,0,0,0,2,1q1.91,0,2.5-6.12h2.31c-.14,2.48-.24,5.48-.3,9s-.1,8.22-.1,14H54.43c-.47-2.81-1-5.51-1.7-8.12a17.15,17.15,0,0,0-3.31-6.72A19.29,19.29,0,0,0,41.8,3.86,24.07,24.07,0,0,0,32.08,1.8,17.14,17.14,0,0,0,23,4.26a21.34,21.34,0,0,0-7,7.07A36.47,36.47,0,0,0,11.58,22.4,62.41,62.41,0,0,0,10,37q0,18,5.82,26.41t18,8.37a17,17,0,0,0,6.27-1,22.64,22.64,0,0,0,4.16-2,6.48,6.48,0,0,0,2.4-2.46,7.68,7.68,0,0,0,.51-3.06V53.53a17.26,17.26,0,0,0-.81-6.11,4.51,4.51,0,0,0-2.95-2.71,23.35,23.35,0,0,0-6.37-.8v-2c1.2.07,2.61.12,4.21.15l5.06.1c1.77,0,3.39.05,4.87.05q3.3,0,6-.1C59,42,60.45,42,61.65,41.9v2c-2.2.13-3.61.67-4.21,1.6s-.9,3.28-.9,7V72.38h-2a14.29,14.29,0,0,0-.75-3.71c-.43-1.34-1.09-2-2-2a2.7,2.7,0,0,0-1.21.3,17.7,17.7,0,0,0-2.1,1.41,29.5,29.5,0,0,1-7,4,23.73,23.73,0,0,1-8.62,1.45q-15.54,0-24.21-9.47T0,38.09Q0,26.36,4.21,17.84A32.15,32.15,0,0,1,15.69,4.66,30,30,0,0,1,32.28,0Z"/><path class="cls-1" d="M98.94.9,123.4,64c1,2.54,2.14,4.22,3.41,5.06a7.35,7.35,0,0,0,3.51,1.35v2c-1.34-.14-3-.22-4.91-.25s-3.88,0-5.82,0c-2.61,0-5,0-7.32,0s-4.11.11-5.51.25v-2c3.41-.13,5.58-.72,6.52-1.75s.73-3.26-.61-6.67L94,12.13l1.6-1.3L78.19,56.14q-2.1,5.41-2,8.47A4.84,4.84,0,0,0,78.49,69a13.35,13.35,0,0,0,6.42,1.4v2c-1.88-.14-3.83-.22-5.87-.25s-3.92,0-5.66,0-3.09,0-4.26,0a29,29,0,0,0-3.26.25v-2A10,10,0,0,0,70,68a16.13,16.13,0,0,0,3.81-6.37L97.34.9h1.6Zm12.23,42.61v2H81.3l1-2Z"/><path class="cls-1" d="M161,1.4v2a17.32,17.32,0,0,0-5.16.75,3.77,3.77,0,0,0-2.36,2.41,18.2,18.2,0,0,0-.6,5.46V61.75a18.23,18.23,0,0,0,.6,5.41,3.47,3.47,0,0,0,2.36,2.36,18.19,18.19,0,0,0,5.16.55h7.32q6.31,0,9.57-1.8a10.42,10.42,0,0,0,4.71-5.92,48.93,48.93,0,0,0,2.16-11h2.3q-.3,3.11-.3,8.21c0,1.28.05,3.1.15,5.47s.29,4.83.56,7.37c-3.41-.14-7.26-.22-11.53-.25s-8.09,0-11.43,0h-8c-3.31,0-6.83,0-10.58,0s-7.25.11-10.52.25v-2a20.49,20.49,0,0,0,5.16-.8A3.6,3.6,0,0,0,143,67.16a18.23,18.23,0,0,0,.6-5.41V12a18.2,18.2,0,0,0-.6-5.46,3.77,3.77,0,0,0-2.36-2.41,17.32,17.32,0,0,0-5.16-.75v-2c1.4.07,3.24.14,5.51.2s4.71.1,7.32.1q3.51,0,7-.1C157.53,1.54,159.45,1.47,161,1.4Z"/><path class="cls-1" d="M221.44,1.4v2a17.27,17.27,0,0,0-5.16.75,3.77,3.77,0,0,0-2.36,2.41,18.2,18.2,0,0,0-.6,5.46V61.75a18.23,18.23,0,0,0,.6,5.41,3.6,3.6,0,0,0,2.36,2.41,20.41,20.41,0,0,0,5.16.8v2q-2.31-.21-5.77-.25c-2.3,0-4.63,0-7,0-2.61,0-5.05,0-7.32,0s-4.11.11-5.51.25v-2a20.49,20.49,0,0,0,5.16-.8,3.59,3.59,0,0,0,2.35-2.41,18.17,18.17,0,0,0,.61-5.41V12a18.14,18.14,0,0,0-.61-5.46A3.76,3.76,0,0,0,201,4.16a17.32,17.32,0,0,0-5.16-.75v-2c1.4.07,3.24.14,5.51.2s4.71.1,7.32.1c2.33,0,4.66,0,7-.1S219.9,1.47,221.44,1.4Z"/><path class="cls-1" d="M252.81.3a19.74,19.74,0,0,1,7.62,1.15A26.68,26.68,0,0,1,265,4c.81.47,1.46.82,2,1a3.31,3.31,0,0,0,1.45.35q1.6,0,2.21-4.41H273c-.06,1.14-.15,2.49-.25,4.06s-.17,3.65-.2,6.22-.05,6-.05,10.17h-2.3a29,29,0,0,0-2.11-9.22A17.79,17.79,0,0,0,262.79,5a14,14,0,0,0-9.07-2.8,12.4,12.4,0,0,0-8.78,3.2,11,11,0,0,0-3.45,8.42,12.19,12.19,0,0,0,2.3,7.57A23.18,23.18,0,0,0,250,26.92q3.85,2.45,8.37,5.26a106,106,0,0,1,9.27,6.36,26.84,26.84,0,0,1,6.42,7,17.28,17.28,0,0,1,2.35,9.22,18.28,18.28,0,0,1-2.91,10.63,17.81,17.81,0,0,1-7.71,6.31,26.13,26.13,0,0,1-10.63,2.11,24,24,0,0,1-8.42-1.2,36.91,36.91,0,0,1-5.31-2.51,7.31,7.31,0,0,0-3.41-1.4q-1.6,0-2.21,4.41h-2.3c.13-1.41.21-3.06.25-5s.06-4.4.1-7.47.05-6.95.05-11.63h2.3a41.62,41.62,0,0,0,2.26,11.23,18.68,18.68,0,0,0,5.71,8.37q3.86,3.15,10.28,3.15a14.31,14.31,0,0,0,9-3.15q4.07-3.16,4.06-10.18a13.24,13.24,0,0,0-4.31-10.12,68.34,68.34,0,0,0-11.33-8.22q-4.71-2.91-8.82-5.92a24.86,24.86,0,0,1-6.57-7A17.88,17.88,0,0,1,234,17.64a16.85,16.85,0,0,1,2.65-9.77,15.93,15.93,0,0,1,7-5.71A23,23,0,0,1,252.81.3Z"/></g></g></svg>